<mxfile host="app.diagrams.net" modified="2024-05-29T13:51:53.804Z" agent="Mozilla/5.0 (Windows NT 10.0; Win64; x64) AppleWebKit/537.36 (KHTML, like Gecko) Chrome/125.0.0.0 Safari/537.36" version="24.4.9" etag="XF5TZhjsJCPIOettXJSi" type="device">
  <diagram id="_K2DW3Gbu-rnRrepte_V" name="Страница — 1">
    <mxGraphModel dx="1050" dy="522" grid="1" gridSize="10" guides="1" tooltips="1" connect="1" arrows="1" fold="1" page="1" pageScale="1" pageWidth="827" pageHeight="1169" math="0" shadow="0">
      <root>
        <mxCell id="0" />
        <mxCell id="1" parent="0" />
        <mxCell id="RTXykmJtZlpVQ1Kh_Tok-4" value="" style="edgeStyle=orthogonalEdgeStyle;rounded=0;orthogonalLoop=1;jettySize=auto;html=1;" edge="1" parent="1" source="RTXykmJtZlpVQ1Kh_Tok-1" target="RTXykmJtZlpVQ1Kh_Tok-3">
          <mxGeometry relative="1" as="geometry" />
        </mxCell>
        <mxCell id="RTXykmJtZlpVQ1Kh_Tok-1" value="Начало" style="strokeWidth=2;html=1;shape=mxgraph.flowchart.terminator;whiteSpace=wrap;fontFamily=Times New Roman;fontSize=18;" vertex="1" parent="1">
          <mxGeometry x="364" y="10" width="100" height="60" as="geometry" />
        </mxCell>
        <mxCell id="RTXykmJtZlpVQ1Kh_Tok-2" value="Конец" style="strokeWidth=2;html=1;shape=mxgraph.flowchart.terminator;whiteSpace=wrap;fontFamily=Times New Roman;fontSize=18;" vertex="1" parent="1">
          <mxGeometry x="364" y="550" width="100" height="60" as="geometry" />
        </mxCell>
        <mxCell id="RTXykmJtZlpVQ1Kh_Tok-6" value="" style="edgeStyle=orthogonalEdgeStyle;rounded=0;orthogonalLoop=1;jettySize=auto;html=1;" edge="1" parent="1" source="RTXykmJtZlpVQ1Kh_Tok-3" target="RTXykmJtZlpVQ1Kh_Tok-5">
          <mxGeometry relative="1" as="geometry" />
        </mxCell>
        <mxCell id="RTXykmJtZlpVQ1Kh_Tok-3" value="void CheckDel(char *str)" style="shape=process;whiteSpace=wrap;html=1;backgroundOutline=1;fontSize=18;fontFamily=Times New Roman;strokeWidth=2;" vertex="1" parent="1">
          <mxGeometry x="296" y="120" width="236" height="40" as="geometry" />
        </mxCell>
        <mxCell id="RTXykmJtZlpVQ1Kh_Tok-8" value="" style="edgeStyle=orthogonalEdgeStyle;rounded=0;orthogonalLoop=1;jettySize=auto;html=1;" edge="1" parent="1" source="RTXykmJtZlpVQ1Kh_Tok-5" target="RTXykmJtZlpVQ1Kh_Tok-7">
          <mxGeometry relative="1" as="geometry" />
        </mxCell>
        <mxCell id="RTXykmJtZlpVQ1Kh_Tok-5" value="int res = ReversePolishNotation(str);" style="whiteSpace=wrap;html=1;fontSize=18;fontFamily=Times New Roman;strokeWidth=2;" vertex="1" parent="1">
          <mxGeometry x="266" y="200" width="296" height="40" as="geometry" />
        </mxCell>
        <mxCell id="RTXykmJtZlpVQ1Kh_Tok-10" value="" style="edgeStyle=orthogonalEdgeStyle;rounded=0;orthogonalLoop=1;jettySize=auto;html=1;" edge="1" parent="1" source="RTXykmJtZlpVQ1Kh_Tok-7" target="RTXykmJtZlpVQ1Kh_Tok-9">
          <mxGeometry relative="1" as="geometry" />
        </mxCell>
        <mxCell id="RTXykmJtZlpVQ1Kh_Tok-12" value="" style="edgeStyle=orthogonalEdgeStyle;rounded=0;orthogonalLoop=1;jettySize=auto;html=1;" edge="1" parent="1" source="RTXykmJtZlpVQ1Kh_Tok-7" target="RTXykmJtZlpVQ1Kh_Tok-11">
          <mxGeometry relative="1" as="geometry" />
        </mxCell>
        <mxCell id="RTXykmJtZlpVQ1Kh_Tok-7" value="res == -1" style="rhombus;whiteSpace=wrap;html=1;fontSize=18;fontFamily=Times New Roman;strokeWidth=2;" vertex="1" parent="1">
          <mxGeometry x="361" y="280" width="106" height="60" as="geometry" />
        </mxCell>
        <mxCell id="RTXykmJtZlpVQ1Kh_Tok-16" value="" style="edgeStyle=orthogonalEdgeStyle;rounded=0;orthogonalLoop=1;jettySize=auto;html=1;" edge="1" parent="1" source="RTXykmJtZlpVQ1Kh_Tok-9" target="RTXykmJtZlpVQ1Kh_Tok-2">
          <mxGeometry relative="1" as="geometry" />
        </mxCell>
        <mxCell id="RTXykmJtZlpVQ1Kh_Tok-9" value="cout &amp;lt;&amp;lt; &quot;Посчитать не получилось, из-за ошибки.&quot; &amp;lt;&amp;lt; endl;" style="shape=parallelogram;perimeter=parallelogramPerimeter;whiteSpace=wrap;html=1;fixedSize=1;fontSize=18;fontFamily=Times New Roman;strokeWidth=2;" vertex="1" parent="1">
          <mxGeometry x="231" y="400" width="366" height="60" as="geometry" />
        </mxCell>
        <mxCell id="RTXykmJtZlpVQ1Kh_Tok-11" value="cout &amp;lt;&amp;lt; &quot;\nОтвет: &quot; &amp;lt;&amp;lt; ReversePolishNotation(str) &amp;lt;&amp;lt; endl;" style="shape=parallelogram;perimeter=parallelogramPerimeter;whiteSpace=wrap;html=1;fixedSize=1;fontSize=18;fontFamily=Times New Roman;strokeWidth=2;" vertex="1" parent="1">
          <mxGeometry x="597" y="400" width="310" height="60" as="geometry" />
        </mxCell>
        <mxCell id="RTXykmJtZlpVQ1Kh_Tok-13" value="-" style="text;html=1;align=center;verticalAlign=middle;whiteSpace=wrap;rounded=0;fontSize=18;" vertex="1" parent="1">
          <mxGeometry x="450" y="280" width="60" height="30" as="geometry" />
        </mxCell>
        <mxCell id="RTXykmJtZlpVQ1Kh_Tok-14" value="+" style="text;html=1;align=center;verticalAlign=middle;whiteSpace=wrap;rounded=0;fontSize=18;" vertex="1" parent="1">
          <mxGeometry x="404" y="330" width="60" height="30" as="geometry" />
        </mxCell>
        <mxCell id="RTXykmJtZlpVQ1Kh_Tok-15" style="edgeStyle=orthogonalEdgeStyle;rounded=0;orthogonalLoop=1;jettySize=auto;html=1;entryX=0.5;entryY=0;entryDx=0;entryDy=0;entryPerimeter=0;" edge="1" parent="1" source="RTXykmJtZlpVQ1Kh_Tok-11" target="RTXykmJtZlpVQ1Kh_Tok-2">
          <mxGeometry relative="1" as="geometry">
            <Array as="points">
              <mxPoint x="752" y="520" />
              <mxPoint x="414" y="520" />
            </Array>
          </mxGeometry>
        </mxCell>
      </root>
    </mxGraphModel>
  </diagram>
</mxfile>
